<svg width="0" height="0" class="hidden">
  <symbol version="1.1" id="reactlogo" xmlns="http://www.w3.org/2000/svg" xmlns:xlink="http://www.w3.org/1999/xlink" x="0px" y="0px" enable-background="new 0 0 512 512" xml:space="preserve" viewBox="0 0 512 512">
    <path fill="#000000" opacity="1.000000" stroke="none" d="
M289.000000,1.000001 
	C363.593719,1.000000 438.187408,1.000000 513.000000,1.000000 
	C513.000000,75.354088 513.000000,149.708389 512.608093,224.739166 
	C511.811798,224.239075 511.270813,223.090195 511.025757,221.881317 
	C509.680908,215.247391 508.408630,208.598755 507.062714,201.536438 
	C506.800751,199.673248 506.769226,198.173004 506.345551,196.793152 
	C502.882782,185.515289 499.346832,174.259903 495.782471,162.640594 
	C491.858032,154.173767 487.984283,146.064026 484.046631,137.708038 
	C483.923157,137.303070 483.863525,137.144318 483.823212,136.731049 
	C483.571350,136.284988 483.300201,136.093430 483.013000,135.541245 
	C478.681427,128.419128 474.365906,121.657646 470.019043,114.541168 
	C463.675537,106.089020 457.363434,97.991875 450.912903,89.582718 
	C443.867035,82.145424 436.959625,75.020142 429.915009,67.586075 
	C422.203308,61.139137 414.628784,55.000980 406.897949,48.553200 
	C397.844788,42.785370 388.947998,37.327160 379.886932,31.554180 
	C368.964935,26.542343 358.207153,21.845280 347.235687,16.863815 
	C345.841675,16.117197 344.690155,15.553588 343.476410,15.209343 
	C336.029083,13.097111 328.567657,11.034519 320.910034,8.611053 
	C315.138855,7.233225 309.568634,6.199741 303.633057,4.979023 
	C298.844391,4.250062 294.421082,3.708333 289.639038,2.978403 
	C289.186890,2.193468 289.093445,1.596735 289.000000,1.000001 
z"></path>
    <path fill="#000000" opacity="1.000000" stroke="none" d="
M225.000000,513.000000 
	C150.406296,513.000000 75.812599,513.000000 1.000000,513.000000 
	C1.000000,438.645905 1.000000,364.291626 1.335031,289.127869 
	C2.114266,289.792511 2.679862,291.242249 2.980567,292.745026 
	C3.999040,297.834869 4.923727,302.943481 5.931473,308.464417 
	C6.653784,312.383057 7.004026,315.984314 8.065164,319.362213 
	C11.188435,329.304504 14.593645,339.158234 17.935001,349.432190 
	C22.379826,359.537201 26.778139,369.256592 31.204306,379.324615 
	C38.116268,390.129059 45.000378,400.584900 52.025188,411.356567 
	C61.761177,422.150940 71.356468,432.629486 81.082207,443.414673 
	C91.918015,452.377625 102.623375,461.033936 113.641052,469.835358 
	C125.262047,476.336182 136.570724,482.691895 148.055695,489.372406 
	C158.820618,493.742920 169.409256,497.788605 180.386871,501.916443 
	C187.849686,503.943329 194.923523,505.888092 202.416504,507.903198 
	C208.556946,508.927032 214.278290,509.880432 220.419159,510.903595 
	C222.225800,511.648895 223.612900,512.324463 225.000000,513.000000 
z"></path>
    <path fill="#000000" opacity="1.000000" stroke="none" d="
M513.000000,290.000000 
	C513.000000,364.260529 513.000000,438.521088 513.000000,513.000000 
	C438.645905,513.000000 364.291626,513.000000 289.283295,512.598511 
	C290.130615,511.798218 291.616516,511.323669 293.135986,511.013428 
	C300.084595,509.594696 307.042664,508.221985 314.398468,506.900543 
	C317.635193,506.308319 320.567291,505.917725 323.289856,504.942261 
	C335.905884,500.421783 348.463776,495.739044 361.423126,491.068756 
	C367.689423,488.290619 373.967010,486.170471 379.382690,482.703796 
	C392.427094,474.353790 405.445801,465.872559 417.784698,456.532440 
	C437.105682,441.907104 453.307648,424.092377 467.168518,404.244385 
	C476.870422,390.351776 485.646240,375.879517 491.998596,359.667725 
	C493.803436,355.442902 495.779968,351.651154 497.017487,347.631836 
	C500.453796,336.471069 503.582611,325.215607 507.026550,313.643646 
	C508.481110,306.444977 509.683258,299.588287 511.067078,292.768463 
	C511.272400,291.756561 512.334351,290.918518 513.000000,290.000000 
z"></path>
    <path fill="#000000" opacity="1.000000" stroke="none" d="
M1.000002,224.000000 
	C1.000000,149.739456 1.000000,75.478920 1.000000,1.000000 
	C75.354088,1.000000 149.708389,1.000000 224.874847,1.331301 
	C224.353607,2.108580 223.050262,2.712715 221.681534,2.973125 
	C215.797607,4.092585 209.894440,5.111044 203.595398,6.095188 
	C191.114380,9.644773 179.036240,13.265466 166.578918,16.943771 
	C154.371643,22.568800 142.370224,27.799829 130.757492,33.785038 
	C114.646576,42.088612 99.873375,52.646118 86.793091,65.054771 
	C74.614563,76.607979 63.112976,89.061829 52.631786,102.173126 
	C37.082928,121.623749 25.067900,143.303116 16.553871,167.139862 
	C15.947964,168.241943 15.655807,169.157379 15.403236,170.083633 
	C12.320882,181.387589 9.244338,192.693115 6.083288,204.399780 
	C5.000251,210.218796 4.075255,215.652145 2.936736,221.040359 
	C2.709595,222.115341 1.666729,223.017929 1.000002,224.000000 
z"></path>
    <path fill="#00B7F8" opacity="1.000000" stroke="none" d="
M5.884248,308.044922 
	C4.923727,302.943481 3.999040,297.834869 2.980567,292.745026 
	C2.679862,291.242249 2.114266,289.792511 1.335031,288.659241 
	C1.000000,280.645782 1.000000,272.291534 1.335021,263.396484 
	C3.101387,261.749054 4.674481,260.784241 5.943859,259.515564 
	C90.534294,174.969803 175.103760,90.403076 259.637146,5.800282 
	C260.997192,4.439094 261.889435,2.610482 263.000000,0.999999 
	C271.354218,1.000000 279.708466,1.000000 288.531342,1.000001 
	C289.093445,1.596735 289.186890,2.193468 289.559265,3.301497 
	C288.469757,5.464219 287.224335,7.238551 285.715057,8.749239 
	C238.485596,56.022312 191.216080,103.255417 144.035263,150.576965 
	C142.280502,152.336975 141.351624,154.920410 139.849533,157.450409 
	C136.893356,158.610138 134.004715,159.163925 131.377899,160.315125 
	C117.394417,166.443359 107.298248,180.752960 110.917877,197.339722 
	C111.463364,199.839371 111.540298,202.441254 111.510971,205.077469 
	C109.541206,206.523514 107.772461,207.765778 106.265625,209.270370 
	C74.638939,240.849411 43.053223,272.469482 11.405612,304.027496 
	C9.813216,305.615387 7.735816,306.716919 5.884248,308.044922 
z"></path>
    <path fill="#006AE6" opacity="1.000000" stroke="none" d="
M225.468399,513.000000 
	C223.612900,512.324463 222.225800,511.648895 220.499557,510.580688 
	C221.526703,508.538940 222.770020,506.766998 224.277069,505.258575 
	C271.788177,457.703949 319.331482,410.181458 366.829681,362.613953 
	C368.431519,361.009766 369.618286,358.991089 371.390564,357.094727 
	C375.193512,355.999268 378.760651,355.324860 381.986847,353.886047 
	C392.764191,349.079712 400.296051,341.543365 403.122253,329.513763 
	C405.055939,321.283051 402.506439,313.767487 401.489868,305.914581 
	C403.460327,304.471649 405.230255,303.231140 406.736847,301.726837 
	C438.599884,269.911591 470.429321,238.062775 502.284424,206.239578 
	C503.803802,204.721741 505.498413,203.379303 507.111420,201.955170 
	C508.408630,208.598755 509.680908,215.247391 511.025757,221.881317 
	C511.270813,223.090195 511.811798,224.239075 512.608093,225.207825 
	C513.000000,231.021149 513.000000,237.042297 512.664917,243.603882 
	C510.898621,245.250870 509.325592,246.215607 508.056274,247.484238 
	C421.588806,333.907074 335.138763,420.347382 248.752701,506.851562 
	C247.103348,508.503143 246.233505,510.933167 245.000000,513.000000 
	C238.645599,513.000000 232.291214,513.000000 225.468399,513.000000 
z"></path>
    <path fill="#0064E5" opacity="1.000000" stroke="none" d="
M245.468658,513.000000 
	C246.233505,510.933167 247.103348,508.503143 248.752701,506.851562 
	C335.138763,420.347382 421.588806,333.907074 508.056274,247.484238 
	C509.325592,246.215607 510.898621,245.250870 512.664917,244.072144 
	C513.000000,254.020889 513.000000,264.041779 512.664978,274.603516 
	C510.898621,276.251007 509.325623,277.215912 508.056213,278.484589 
	C431.465698,355.029907 354.896271,431.596283 278.363495,508.199310 
	C277.003296,509.560760 276.110748,511.389374 275.000000,513.000000 
	C265.312439,513.000000 255.624878,513.000000 245.468658,513.000000 
z"></path>
    <path fill="#00BEF9" opacity="1.000000" stroke="none" d="
M262.531342,0.999999 
	C261.889435,2.610482 260.997192,4.439094 259.637146,5.800282 
	C175.103760,90.403076 90.534294,174.969803 5.943859,259.515564 
	C4.674481,260.784241 3.101387,261.749054 1.335021,262.927856 
	C1.000000,252.312439 1.000000,241.624878 1.366286,230.433243 
	C3.977512,228.630066 6.633938,227.743256 8.408115,225.972504 
	C80.870239,153.649292 153.269836,81.263359 225.551407,8.759802 
	C227.417694,6.887770 227.881912,3.617944 229.000000,1.000000 
	C240.020889,1.000000 251.041794,1.000000 262.531342,0.999999 
z"></path>
    <path fill="#005FE4" opacity="1.000000" stroke="none" d="
M275.464661,513.000000 
	C276.110748,511.389374 277.003296,509.560760 278.363495,508.199310 
	C354.896271,431.596283 431.465698,355.029907 508.056213,278.484589 
	C509.325623,277.215912 510.898621,276.251007 512.664978,275.072174 
	C513.000000,279.689240 513.000000,284.378510 513.000000,289.533875 
	C512.334351,290.918518 511.272400,291.756561 511.067078,292.768463 
	C509.683258,299.588287 508.481110,306.444977 506.703735,313.724548 
	C504.772034,315.292480 503.233765,316.302551 501.959076,317.576416 
	C440.439056,379.056061 378.937469,440.554169 317.469666,502.086029 
	C316.100403,503.456696 315.145477,505.241241 313.997314,506.832764 
	C307.042664,508.221985 300.084595,509.594696 293.135986,511.013428 
	C291.616516,511.323669 290.130615,511.798218 288.814636,512.598511 
	C284.643097,513.000000 280.286194,513.000000 275.464661,513.000000 
z"></path>
    <path fill="#00C2FA" opacity="1.000000" stroke="none" d="
M228.600006,1.000000 
	C227.881912,3.617944 227.417694,6.887770 225.551407,8.759802 
	C153.269836,81.263359 80.870239,153.649292 8.408115,225.972504 
	C6.633938,227.743256 3.977512,228.630066 1.366286,229.964584 
	C1.000000,228.285645 1.000000,226.571289 1.000002,224.428467 
	C1.666729,223.017929 2.709595,222.115341 2.936736,221.040359 
	C4.075255,215.652145 5.000251,210.218796 6.406414,204.319916 
	C8.228435,202.705566 9.767658,201.696045 11.042529,200.421982 
	C74.228165,137.276718 137.395325,74.112953 200.528687,10.915428 
	C201.897888,9.544847 202.851059,7.758630 203.998291,6.166297 
	C209.894440,5.111044 215.797607,4.092585 221.681534,2.973125 
	C223.050262,2.712715 224.353607,2.108580 225.343506,1.331301 
	C226.066666,1.000000 227.133347,1.000000 228.600006,1.000000 
z"></path>
    <path fill="#0074E9" opacity="1.000000" stroke="none" d="
M507.062714,201.536438 
	C505.498413,203.379303 503.803802,204.721741 502.284424,206.239578 
	C470.429321,238.062775 438.599884,269.911591 406.736847,301.726837 
	C405.230255,303.231140 403.460327,304.471649 401.324890,305.581909 
	C395.213135,295.257446 389.589508,285.186096 384.039825,274.772278 
	C385.203491,272.992401 386.142212,271.404236 387.404938,270.139496 
	C421.939026,235.550323 456.498627,200.986542 491.095917,166.460571 
	C492.464233,165.095062 494.244720,164.142578 495.833160,162.997650 
	C499.346832,174.259903 502.882782,185.515289 506.345551,196.793152 
	C506.769226,198.173004 506.800751,199.673248 507.062714,201.536438 
z"></path>
    <path fill="#007BEA" opacity="1.000000" stroke="none" d="
M495.782471,162.640579 
	C494.244720,164.142578 492.464233,165.095062 491.095917,166.460571 
	C456.498627,200.986542 421.939026,235.550323 387.404938,270.139496 
	C386.142212,271.404236 385.203491,272.992401 383.734863,274.605835 
	C378.608276,268.830872 373.860596,262.879913 369.032623,256.828339 
	C370.664612,254.880646 372.384064,252.938354 373.982666,250.901199 
	C379.970062,243.271317 385.917908,235.610413 392.224396,227.902374 
	C394.248444,226.526047 396.084930,225.365112 397.585815,223.867722 
	C424.834381,196.682861 452.037994,169.452972 479.271332,142.252823 
	C480.795258,140.730728 482.493439,139.383102 484.110535,137.954269 
	C487.984283,146.064026 491.858032,154.173767 495.782471,162.640579 
z"></path>
    <path fill="#00AEF6" opacity="1.000000" stroke="none" d="
M321.110931,8.955397 
	C328.567657,11.034519 336.029083,13.097111 343.476410,15.209343 
	C344.690155,15.553588 345.841675,16.117197 347.111084,17.251072 
	C346.057831,19.523821 345.113281,21.322035 343.743591,22.696651 
	C320.774963,45.747833 297.766449,68.759338 274.710114,91.722733 
	C273.352600,93.074776 271.514282,93.944046 269.510468,95.007675 
	C264.563507,93.992493 259.886078,91.809044 255.470734,92.249954 
	C242.785065,93.516701 232.961914,100.737335 225.348679,110.449562 
	C214.899704,123.779350 207.531372,138.840851 202.956787,155.207092 
	C201.990829,158.662918 200.728561,161.354401 196.238998,159.083496 
	C194.581650,158.245209 192.458908,158.316269 190.543884,158.000137 
	C184.683380,157.032715 178.820663,156.078674 173.140015,154.831451 
	C176.944977,151.131470 180.659073,147.809891 184.178802,144.293732 
	C226.307281,102.207855 268.389587,60.075741 310.547882,18.019796 
	C313.823425,14.752234 317.578644,11.965570 321.110931,8.955397 
z"></path>
    <path fill="#0096F0" opacity="1.000000" stroke="none" d="
M407.054260,48.862823 
	C414.628784,55.000980 422.203308,61.139137 429.687683,67.834854 
	C428.699615,69.134239 427.734009,69.808289 426.913666,70.627731 
	C400.401001,97.110687 373.887268,123.592659 347.451080,150.151794 
	C346.263611,151.344803 345.798248,153.256577 344.575531,154.904083 
	C334.484650,156.626984 324.824219,158.340347 315.129700,159.832642 
	C314.211456,159.973984 312.467163,158.951004 312.153931,158.088226 
	C310.845245,154.483856 309.936584,150.734238 309.207153,146.938965 
	C309.822144,146.678635 310.167542,146.573318 310.392456,146.347870 
	C341.194885,115.476768 371.992554,84.600914 402.770416,53.705322 
	C404.288727,52.181194 405.630371,50.481026 407.054260,48.862823 
z"></path>
    <path fill="#00A5F4" opacity="1.000000" stroke="none" d="
M269.899689,95.037971 
	C271.514282,93.944046 273.352600,93.074776 274.710114,91.722733 
	C297.766449,68.759338 320.774963,45.747833 343.743591,22.696651 
	C345.113281,21.322035 346.057831,19.523821 347.324829,17.535473 
	C358.207153,21.845280 368.964935,26.542343 379.856812,31.922619 
	C378.856873,34.374226 377.989380,36.405445 376.546265,37.869144 
	C365.696228,48.873989 354.758392,59.792728 343.798889,70.688995 
	C327.540771,86.853325 311.242188,102.976921 294.648438,118.955582 
	C288.467346,108.532875 280.241882,100.696724 269.899689,95.037971 
z"></path>
    <path fill="#009DF2" opacity="1.000000" stroke="none" d="
M294.960815,119.117844 
	C311.242188,102.976921 327.540771,86.853325 343.798889,70.688995 
	C354.758392,59.792728 365.696228,48.873989 376.546265,37.869144 
	C377.989380,36.405445 378.856873,34.374226 380.021057,32.237392 
	C388.947998,37.327160 397.844788,42.785370 406.897949,48.553200 
	C405.630371,50.481026 404.288727,52.181194 402.770416,53.705322 
	C371.992554,84.600914 341.194885,115.476768 310.392456,146.347870 
	C310.167542,146.573318 309.822144,146.678635 308.886505,146.755249 
	C303.813599,137.486252 299.387207,128.302048 294.960815,119.117844 
z"></path>
    <path fill="#008FEF" opacity="1.000000" stroke="none" d="
M344.996552,154.833557 
	C345.798248,153.256577 346.263611,151.344803 347.451080,150.151794 
	C373.887268,123.592659 400.401001,97.110687 426.913666,70.627731 
	C427.734009,69.808289 428.699615,69.134239 429.824829,68.143631 
	C436.959625,75.020142 443.867035,82.145424 450.762238,89.894051 
	C449.566376,92.111458 448.559082,93.881157 447.172577,95.273132 
	C427.532288,114.991051 407.832825,134.650040 388.173950,154.349472 
	C386.345551,156.181625 384.695343,158.191605 382.567291,160.065536 
	C370.139435,155.707779 357.656708,154.633835 344.996552,154.833557 
z"></path>
    <path fill="#0087ED" opacity="1.000000" stroke="none" d="
M382.962402,160.119019 
	C384.695343,158.191605 386.345551,156.181625 388.173950,154.349472 
	C407.832825,134.650040 427.532288,114.991051 447.172577,95.273132 
	C448.559082,93.881157 449.566376,92.111458 450.900635,90.206062 
	C457.363434,97.991875 463.675537,106.089020 469.845581,114.833054 
	C468.351349,116.937599 467.044067,118.440025 465.640167,119.845985 
	C450.654663,134.853714 435.681244,149.873672 420.643616,164.829025 
	C414.794037,170.646622 408.790131,176.309036 402.540527,181.861298 
	C401.959747,180.759018 401.752594,179.816299 401.421265,178.919434 
	C398.086365,169.891098 390.932526,164.602325 382.962402,160.119019 
z"></path>
    <path fill="#0080EB" opacity="1.000000" stroke="none" d="
M402.856567,182.042145 
	C408.790131,176.309036 414.794037,170.646622 420.643616,164.829025 
	C435.681244,149.873672 450.654663,134.853714 465.640167,119.845985 
	C467.044067,118.440025 468.351349,116.937599 469.876923,115.188057 
	C474.365906,121.657646 478.681427,128.419128 483.114807,135.740356 
	C483.391205,136.555130 483.581635,136.783615 483.803925,136.985565 
	C483.863525,137.144318 483.923157,137.303070 484.046631,137.708038 
	C482.493439,139.383102 480.795258,140.730728 479.271332,142.252823 
	C452.037994,169.452972 424.834381,196.682861 397.585815,223.867722 
	C396.084930,225.365112 394.248444,226.526047 392.283508,227.536652 
	C399.103149,213.004578 406.853882,198.934784 402.856567,182.042145 
z"></path>
    <path fill="#00B2F7" opacity="1.000000" stroke="none" d="
M320.910034,8.611053 
	C317.578644,11.965570 313.823425,14.752234 310.547882,18.019796 
	C268.389587,60.075741 226.307281,102.207855 184.178802,144.293732 
	C180.659073,147.809891 176.944977,151.131470 172.679169,154.778534 
	C167.357788,154.953674 162.678436,154.893753 158.023911,154.484070 
	C159.465775,152.156250 160.639236,149.935089 162.335419,148.235626 
	C208.144623,102.337440 254.014114,56.499428 299.832947,10.610836 
	C301.433563,9.007782 302.619293,6.990488 303.998383,5.166260 
	C309.568634,6.199741 315.138855,7.233225 320.910034,8.611053 
z"></path>
    <path fill="#00B4F7" opacity="1.000000" stroke="none" d="
M303.633057,4.979027 
	C302.619293,6.990488 301.433563,9.007782 299.832947,10.610836 
	C254.014114,56.499428 208.144623,102.337440 162.335419,148.235626 
	C160.639236,149.935089 159.465775,152.156250 157.585602,154.555847 
	C151.427628,155.691635 145.732742,156.405884 140.037872,157.120132 
	C141.351624,154.920410 142.280502,152.336975 144.035263,150.576965 
	C191.216080,103.255417 238.485596,56.022312 285.715057,8.749239 
	C287.224335,7.238551 288.469757,5.464219 289.917969,3.489700 
	C294.421082,3.708333 298.844391,4.250062 303.633057,4.979027 
z"></path>
    <path fill="#007BEA" opacity="1.000000" stroke="none" d="
M483.823212,136.731049 
	C483.581635,136.783615 483.391205,136.555130 483.130859,136.100983 
	C483.300201,136.093430 483.571350,136.284988 483.823212,136.731049 
z"></path>
    <path fill="#0089ED" opacity="1.000000" stroke="none" d="
M113.328728,469.690247 
	C102.623375,461.033936 91.918015,452.377625 81.254814,443.122131 
	C82.653328,441.059937 83.963730,439.551025 85.372902,438.140778 
	C109.976555,413.518219 134.603897,388.919312 159.176666,364.265991 
	C160.660889,362.776855 161.731476,360.875427 163.447174,359.092896 
	C175.234116,357.535278 186.592087,356.202972 197.884552,354.448975 
	C200.418396,354.055389 201.306656,354.288910 202.096146,356.759094 
	C204.163925,363.228638 206.564651,369.591736 208.509583,376.078735 
	C207.741196,376.380371 207.203537,376.505219 206.863968,376.834442 
	C193.405701,389.881165 179.860764,402.841034 166.559479,416.046295 
	C157.642746,424.898621 149.169876,434.196533 140.324341,443.122620 
	C131.438080,452.089752 122.336143,460.843170 113.328728,469.690247 
z"></path>
    <path fill="#00ADF6" opacity="1.000000" stroke="none" d="
M5.931470,308.464417 
	C7.735816,306.716919 9.813216,305.615387 11.405612,304.027496 
	C43.053223,272.469482 74.638939,240.849411 106.265625,209.270370 
	C107.772461,207.765778 109.541206,206.523514 111.679474,205.417999 
	C116.603889,217.608963 122.472908,228.766251 129.784149,239.034378 
	C127.648041,240.551544 125.704170,241.843246 124.084686,243.459915 
	C90.279228,277.206299 56.514191,310.993164 22.722609,344.753448 
	C21.200657,346.273987 19.503855,347.619568 17.888493,349.046631 
	C14.593645,339.158234 11.188435,329.304504 8.065164,319.362213 
	C7.004026,315.984314 6.653784,312.383057 5.931470,308.464417 
z"></path>
    <path fill="#00A5F4" opacity="1.000000" stroke="none" d="
M17.935003,349.432190 
	C19.503855,347.619568 21.200657,346.273987 22.722609,344.753448 
	C56.514191,310.993164 90.279228,277.206299 124.084686,243.459915 
	C125.704170,241.843246 127.648041,240.551544 130.091278,239.184662 
	C135.481705,245.240875 140.221695,251.220917 145.004318,257.254730 
	C134.138275,269.487244 123.784927,282.039642 116.474068,297.004761 
	C114.856567,297.681396 113.341171,298.090485 112.377556,299.052338 
	C86.981628,324.402039 61.654118,349.820221 36.265144,375.176880 
	C34.782776,376.657410 32.882332,377.719299 31.176456,378.976013 
	C26.778139,369.256592 22.379826,359.537201 17.935003,349.432190 
z"></path>
    <path fill="#007FEB" opacity="1.000000" stroke="none" d="
M113.641052,469.835358 
	C122.336143,460.843170 131.438080,452.089752 140.324341,443.122620 
	C149.169876,434.196533 157.642746,424.898621 166.559479,416.046295 
	C179.860764,402.841034 193.405701,389.881165 206.863968,376.834442 
	C207.203537,376.505219 207.741196,376.380371 208.669983,376.403198 
	C214.749405,387.717224 220.333450,398.795776 228.871536,408.182648 
	C226.587921,411.032959 224.660385,413.771454 222.331619,416.110474 
	C200.260757,438.278259 178.146088,460.402679 155.967865,482.463013 
	C153.515182,484.902649 150.587036,486.864288 147.879410,489.047607 
	C136.570724,482.691895 125.262047,476.336182 113.641052,469.835358 
z"></path>
    <path fill="#0094F0" opacity="1.000000" stroke="none" d="
M162.994522,359.165863 
	C161.731476,360.875427 160.660889,362.776855 159.176666,364.265991 
	C134.603897,388.919312 109.976555,413.518219 85.372902,438.140778 
	C83.963730,439.551025 82.653328,441.059937 81.124359,442.815491 
	C71.356468,432.629486 61.761177,422.150940 52.367729,411.281464 
	C54.239716,409.567017 56.057705,408.391876 57.557556,406.897461 
	C76.491295,388.032135 95.372513,369.114105 114.291420,350.233856 
	C115.809776,348.718567 117.507156,347.382721 119.434341,346.099121 
	C123.991982,348.819031 128.036270,351.840179 132.522552,353.897491 
	C142.152313,358.313507 152.542496,359.095123 162.994522,359.165863 
z"></path>
    <path fill="#0071E8" opacity="1.000000" stroke="none" d="
M201.997375,507.832825 
	C194.923523,505.888092 187.849686,503.943329 180.411987,501.566956 
	C181.344269,499.278076 182.399124,497.180695 183.972809,495.599701 
	C206.681961,472.784760 229.473251,450.051605 252.194199,427.248322 
	C253.672836,425.764374 254.739273,423.869659 256.410645,422.095337 
	C272.545349,420.397675 283.208038,411.190918 292.025238,398.924530 
	C301.155029,386.223236 307.044464,372.027496 311.815277,357.307709 
	C312.741302,354.450500 313.412994,353.990692 316.562744,354.611115 
	C326.295868,356.528381 336.175293,357.703094 345.973755,359.515900 
	C344.531860,361.844971 343.357941,364.067627 341.660797,365.768127 
	C296.527191,410.991180 251.326370,456.147217 206.210510,501.388000 
	C204.436127,503.167297 203.385330,505.668152 201.997375,507.832825 
z"></path>
    <path fill="#009EF2" opacity="1.000000" stroke="none" d="
M119.121353,345.963501 
	C117.507156,347.382721 115.809776,348.718567 114.291420,350.233856 
	C95.372513,369.114105 76.491295,388.032135 57.557556,406.897461 
	C56.057705,408.391876 54.239716,409.567017 52.227028,410.965637 
	C45.000378,400.584900 38.116268,390.129059 31.204308,379.324615 
	C32.882332,377.719299 34.782776,376.657410 36.265144,375.176880 
	C61.654118,349.820221 86.981628,324.402039 112.377556,299.052338 
	C113.341171,298.090485 114.856567,297.681396 116.437202,297.363525 
	C108.566048,314.235657 106.517654,330.458160 119.121353,345.963501 
z"></path>
    <path fill="#006DE7" opacity="1.000000" stroke="none" d="
M202.416504,507.903198 
	C203.385330,505.668152 204.436127,503.167297 206.210510,501.388000 
	C251.326370,456.147217 296.527191,410.991180 341.660797,365.768127 
	C343.357941,364.067627 344.531860,361.844971 346.436615,359.445923 
	C354.948578,358.405975 362.973541,357.785797 370.998535,357.165649 
	C369.618286,358.991089 368.431519,361.009766 366.829681,362.613953 
	C319.331482,410.181458 271.788177,457.703949 224.277069,505.258575 
	C222.770020,506.766998 221.526703,508.538940 220.080017,510.510925 
	C214.278290,509.880432 208.556946,508.927032 202.416504,507.903198 
z"></path>
    <path fill="#0076E9" opacity="1.000000" stroke="none" d="
M255.997437,422.166016 
	C254.739273,423.869659 253.672836,425.764374 252.194199,427.248322 
	C229.473251,450.051605 206.681961,472.784760 183.972809,495.599701 
	C182.399124,497.180695 181.344269,499.278076 180.023026,501.484802 
	C169.409256,497.788605 158.820618,493.742920 148.055695,489.372437 
	C150.587036,486.864288 153.515182,484.902649 155.967865,482.463013 
	C178.146088,460.402679 200.260757,438.278259 222.331619,416.110474 
	C224.660385,413.771454 226.587921,411.032959 229.180328,408.321655 
	C236.608124,416.273926 245.787308,420.189575 255.997437,422.166016 
z"></path>
    <path fill="#0059E3" opacity="1.000000" stroke="none" d="
M314.398438,506.900513 
	C315.145477,505.241241 316.100403,503.456696 317.469666,502.086029 
	C378.937469,440.554169 440.439056,379.056061 501.959076,317.576416 
	C503.233765,316.302551 504.772034,315.292480 506.510132,314.078430 
	C503.582611,325.215607 500.453796,336.471069 497.017487,347.631836 
	C495.779968,351.651154 493.803436,355.442902 491.649261,359.693054 
	C489.623718,360.997955 487.869843,361.704498 486.637756,362.933990 
	C445.702332,403.784210 404.803497,444.671234 363.979797,485.633118 
	C362.578369,487.039307 362.002899,489.268707 361.042480,491.114410 
	C348.463776,495.739044 335.905884,500.421783 323.289856,504.942261 
	C320.567291,505.917725 317.635193,506.308319 314.398438,506.900513 
z"></path>
    <path fill="#0054E2" opacity="1.000000" stroke="none" d="
M361.423096,491.068756 
	C362.002899,489.268707 362.578369,487.039307 363.979797,485.633118 
	C404.803497,444.671234 445.702332,403.784210 486.637756,362.933990 
	C487.869843,361.704498 489.623718,360.997955 491.483704,360.022308 
	C485.646240,375.879517 476.870422,390.351776 467.168518,404.244385 
	C453.307648,424.092377 437.105682,441.907104 417.784698,456.532440 
	C405.445801,465.872559 392.427094,474.353790 379.382690,482.703796 
	C373.967010,486.170471 367.689423,488.290619 361.423096,491.068756 
z"></path>
    <path fill="#00C6FB" opacity="1.000000" stroke="none" d="
M203.595398,6.095189 
	C202.851059,7.758630 201.897888,9.544847 200.528687,10.915428 
	C137.395325,74.112953 74.228165,137.276718 11.042529,200.421982 
	C9.767658,201.696045 8.228435,202.705566 6.489415,203.918365 
	C9.244338,192.693115 12.320882,181.387589 15.403236,170.083633 
	C15.655807,169.157379 15.947964,168.241943 16.921062,167.128143 
	C19.273970,165.929260 21.209131,165.205856 22.540398,163.877335 
	C69.756790,116.758194 116.928024,69.593758 164.028534,22.358833 
	C165.427521,20.955862 166.000183,18.728926 166.958115,16.886158 
	C179.036240,13.265466 191.114380,9.644773 203.595398,6.095189 
z"></path>
    <path fill="#00CBFC" opacity="1.000000" stroke="none" d="
M166.578918,16.943771 
	C166.000183,18.728926 165.427521,20.955862 164.028534,22.358833 
	C116.928024,69.593758 69.756790,116.758194 22.540398,163.877335 
	C21.209131,165.205856 19.273970,165.929260 17.253204,166.946533 
	C25.067900,143.303116 37.082928,121.623749 52.631786,102.173126 
	C63.112976,89.061829 74.614563,76.607979 86.793091,65.054771 
	C99.873375,52.646118 114.646576,42.088612 130.757492,33.785038 
	C142.370224,27.799829 154.371643,22.568800 166.578918,16.943771 
z"></path>
    <path fill="#000000" opacity="1.000000" stroke="none" d="
M256.410645,422.095337 
	C245.787308,420.189575 236.608124,416.273926 229.350250,408.024506 
	C220.333450,398.795776 214.749405,387.717224 208.993088,376.321747 
	C206.564651,369.591736 204.163925,363.228638 202.096146,356.759094 
	C201.306656,354.288910 200.418396,354.055389 197.884552,354.448975 
	C186.592087,356.202972 175.234116,357.535278 163.447174,359.092896 
	C152.542496,359.095123 142.152313,358.313507 132.522552,353.897491 
	C128.036270,351.840179 123.991982,348.819031 119.434349,346.099121 
	C106.517654,330.458160 108.566048,314.235657 116.796432,297.353577 
	C123.784927,282.039642 134.138275,269.487244 145.004318,257.254730 
	C140.221695,251.220917 135.481705,245.240875 130.434586,239.110535 
	C122.472908,228.766251 116.603889,217.608963 112.002472,205.336365 
	C111.540298,202.441254 111.463364,199.839371 110.917877,197.339722 
	C107.298248,180.752960 117.394417,166.443359 131.377899,160.315125 
	C134.004715,159.163925 136.893356,158.610138 139.849533,157.450409 
	C145.732742,156.405884 151.427628,155.691635 157.560791,154.905609 
	C162.678436,154.893753 167.357788,154.953674 172.497971,155.066528 
	C178.820663,156.078674 184.683380,157.032715 190.543884,158.000137 
	C192.458908,158.316269 194.581650,158.245209 196.238998,159.083496 
	C200.728561,161.354401 201.990829,158.662918 202.956787,155.207092 
	C207.531372,138.840851 214.899704,123.779350 225.348679,110.449562 
	C232.961914,100.737335 242.785065,93.516701 255.470734,92.249954 
	C259.886078,91.809044 264.563507,93.992493 269.510468,95.007675 
	C280.241882,100.696724 288.467346,108.532875 294.648438,118.955574 
	C299.387207,128.302048 303.813599,137.486252 308.560638,146.854156 
	C309.936584,150.734238 310.845245,154.483856 312.153931,158.088226 
	C312.467163,158.951004 314.211456,159.973984 315.129700,159.832642 
	C324.824219,158.340347 334.484650,156.626984 344.575531,154.904083 
	C357.656708,154.633835 370.139435,155.707779 382.567291,160.065536 
	C390.932526,164.602325 398.086365,169.891098 401.421265,178.919434 
	C401.752594,179.816299 401.959747,180.759018 402.540527,181.861298 
	C406.853882,198.934784 399.103149,213.004578 391.939728,227.595428 
	C385.917908,235.610413 379.970062,243.271317 373.982666,250.901199 
	C372.384064,252.938354 370.664612,254.880646 369.032623,256.828339 
	C373.860596,262.879913 378.608276,268.830872 383.660950,274.948273 
	C389.589508,285.186096 395.213135,295.257446 401.001709,305.661499 
	C402.506439,313.767487 405.055939,321.283051 403.122253,329.513763 
	C400.296051,341.543365 392.764191,349.079712 381.986847,353.886047 
	C378.760651,355.324860 375.193512,355.999268 371.390564,357.094757 
	C362.973541,357.785797 354.948578,358.405975 346.460754,359.096130 
	C336.175293,357.703094 326.295868,356.528381 316.562744,354.611115 
	C313.412994,353.990692 312.741302,354.450500 311.815277,357.307709 
	C307.044464,372.027496 301.155029,386.223236 292.025238,398.924530 
	C283.208038,411.190918 272.545349,420.397675 256.410645,422.095337 
M223.755478,317.252838 
	C214.769699,311.710815 205.783920,306.168793 196.798141,300.626770 
	C196.430801,300.988098 196.063446,301.349426 195.696106,301.710754 
	C198.091385,313.820465 200.486649,325.930206 202.979401,338.854004 
	C203.190506,339.966797 203.602097,341.083923 203.578384,342.191681 
	C203.469330,347.287933 206.574844,347.022980 209.908432,345.918701 
	C219.730423,342.665100 229.531784,339.344818 239.289246,335.903320 
	C242.673233,334.709747 245.905014,333.084686 250.303070,331.182312 
	C240.731964,326.336304 232.388351,322.111786 223.755478,317.252838 
M311.953156,178.211868 
	C310.852386,174.441376 309.751587,170.670898 308.479126,166.312408 
	C293.402710,171.637985 279.033081,176.713882 264.663452,181.789795 
	C264.784027,182.270828 264.904572,182.751862 265.025146,183.232895 
	C274.683167,188.432709 284.341187,193.632523 294.636658,199.142120 
	C302.127106,203.913452 309.617554,208.684769 317.108002,213.456100 
	C317.473114,213.098724 317.838226,212.741348 318.203369,212.383972 
	C316.079620,201.255447 313.955902,190.126938 311.953156,178.211868 
M345.728729,242.284622 
	C339.064819,236.933441 332.400909,231.582260 324.553101,225.280411 
	C325.106628,232.492111 325.708679,238.294846 325.954987,244.112625 
	C326.207062,250.066605 326.110535,256.035339 326.023956,262.913391 
	C325.631927,271.066498 325.239929,279.219635 324.847931,287.372742 
	C325.242828,287.583893 325.637726,287.795044 326.032623,288.006226 
	C337.911560,277.851990 349.790497,267.697754 362.109009,257.167816 
	C356.135162,251.857101 351.089874,247.371872 345.728729,242.284622 
M302.815430,210.304077 
	C296.557617,206.831558 290.299805,203.359055 283.709320,199.263443 
	C278.176544,196.493591 272.643768,193.723740 266.769409,190.316940 
	C264.590729,189.226929 262.509155,187.774261 260.203888,187.156998 
	C258.214447,186.624283 255.633377,186.327179 253.890640,187.149017 
	C234.059143,196.501175 215.077271,207.365387 197.155960,220.023880 
	C196.150101,220.734329 195.122772,222.218994 195.086319,223.374283 
	C194.669632,236.578430 194.443558,249.788574 194.021164,263.924255 
	C194.347626,270.969421 195.435913,278.085083 194.792358,285.040497 
	C194.110062,292.414673 197.682892,295.668396 203.966125,298.415894 
	C212.021439,303.413116 220.076752,308.410339 228.679001,313.917725 
	C234.881332,317.159088 241.083664,320.400452 247.926865,323.969818 
	C252.054352,325.133636 255.066589,329.631134 260.495514,326.924347 
	C280.009735,317.194977 298.946808,306.519531 316.806519,293.991852 
	C317.817444,293.282745 318.862274,291.805786 318.901306,290.652649 
	C319.326080,278.104828 319.553009,265.550293 319.972260,252.070023 
	C319.592560,243.712677 319.212891,235.355316 318.971191,226.172821 
	C319.694183,222.903595 318.175873,220.787872 315.527802,219.102173 
	C311.356476,216.446838 307.262024,213.670807 302.815430,210.304077 
M297.987885,136.162750 
	C295.030914,131.095551 292.073975,126.028343 289.009247,120.252213 
	C284.375671,115.152863 279.742126,110.053520 274.781677,104.321922 
	C274.471191,104.205643 274.125061,104.143333 273.855286,103.965355 
	C259.854919,94.729111 244.284958,96.663208 233.418137,108.991142 
	C224.070892,119.595139 217.434235,131.837036 212.115646,144.811172 
	C209.932312,150.137177 208.385086,155.723938 206.425552,161.558151 
	C210.405853,162.524353 213.684082,163.320129 217.333588,164.771729 
	C224.221497,167.130493 231.109406,169.489258 238.746017,171.993134 
	C241.704178,173.288025 244.607803,174.732147 247.634979,175.838181 
	C251.046814,177.084763 254.569916,178.026886 258.790771,179.000076 
	C274.759308,172.909775 290.727844,166.819473 307.634979,160.371185 
	C304.575378,152.875519 301.312866,144.882843 297.987885,136.162750 
M351.273712,240.721191 
	C355.709778,244.680542 360.145874,248.639893 364.766602,252.764069 
	C375.073761,242.622772 383.933411,231.157227 390.494232,217.987106 
	C394.574188,209.797134 398.468079,201.529999 397.971283,191.130768 
	C398.149109,184.108978 396.343933,177.839752 390.773560,172.275177 
	C385.370605,166.675934 378.645020,163.855438 370.586456,162.196106 
	C351.906189,159.548706 333.472656,160.914825 315.280304,165.386597 
	C317.932068,180.723511 320.549225,195.860291 323.023468,211.802399 
	C323.262299,217.229294 325.767822,221.011856 330.743042,223.432846 
	C333.031677,224.546509 334.898834,226.526352 337.234070,228.737900 
	C341.810120,232.531647 346.386169,236.325378 351.273712,240.721191 
M127.990883,225.763687 
	C134.756287,235.031174 141.521683,244.298676 147.884750,253.015030 
	C161.226776,241.966125 173.777527,231.662567 186.185074,221.189346 
	C187.831314,219.799774 189.501968,217.687912 189.878235,215.671173 
	C191.816162,205.283890 193.190872,194.792587 195.054626,184.389999 
	C196.186874,178.070404 197.848816,171.845703 199.341965,165.273941 
	C195.804367,164.739029 192.926422,164.303864 189.611084,163.171219 
	C185.539520,162.770874 181.448822,162.507996 177.399963,161.944489 
	C165.091873,160.231476 152.815552,160.172318 140.693619,163.054138 
	C131.755722,165.178986 123.785393,169.122742 119.120316,177.640518 
	C111.618187,191.338318 118.049576,211.141785 127.990883,225.763687 
M178.826569,287.331299 
	C168.806091,278.633209 158.785614,269.935120 148.704834,261.184662 
	C145.544266,264.866913 142.223572,268.648163 138.998688,272.509369 
	C129.347137,284.065308 121.268494,296.612854 117.443375,311.295105 
	C114.400810,322.973602 114.460197,334.396576 125.232529,343.742981 
	C132.851456,350.049927 142.165680,352.187653 151.507385,352.816193 
	C167.431625,353.887665 183.330490,352.829010 198.967743,348.415222 
	C198.883362,347.362732 198.885361,346.379059 198.715912,345.425812 
	C196.155685,331.022247 193.608704,316.616150 190.963242,302.228149 
	C190.474121,299.567902 190.321136,296.272583 188.677597,294.529510 
	C186.082901,291.777649 182.357925,290.091553 178.826569,287.331299 
M385.986481,288.177948 
	C379.209717,278.918243 372.432983,269.658508 366.096771,261.000763 
	C352.726562,272.068207 340.162292,282.375336 327.746277,292.858124 
	C326.102844,294.245636 324.478027,296.391815 324.104095,298.418976 
	C322.478668,307.230957 321.529663,316.167084 319.928192,324.984253 
	C318.509216,332.796539 316.553192,340.511292 314.762115,348.594604 
	C318.755371,349.390594 322.375702,350.112244 326.844727,350.977112 
	C342.387024,353.502289 357.973633,354.512054 373.454041,350.900543 
	C382.432709,348.805908 390.325714,344.725861 394.995819,336.070740 
	C402.300781,322.532410 395.783997,302.415222 385.986481,288.177948 
M228.241821,398.657928 
	C230.866089,401.309631 233.406799,404.050598 236.128311,406.598480 
	C252.545456,421.968109 268.234863,417.018433 281.022949,403.839630 
	C290.501129,394.071838 296.491241,382.122589 301.580811,369.708069 
	C303.834900,364.209839 305.526520,358.481018 307.510956,352.748718 
	C298.202362,349.735809 289.598663,346.951019 280.320557,343.818359 
	C275.102081,341.621124 270.008789,339.009857 264.618744,337.380188 
	C261.324829,336.384277 258.544769,333.472839 254.250412,335.207855 
	C238.786407,341.455597 223.152084,347.281799 206.808426,353.564697 
	C211.777237,368.816132 217.387695,384.593719 228.241821,398.657928 
M176.952667,235.529572 
	C168.746262,242.477890 160.539841,249.426208 151.519684,257.063507 
	C164.413712,267.981812 176.302658,278.049042 188.499390,288.376892 
	C188.499390,267.067474 188.499390,246.838486 188.499390,226.067551 
	C184.704361,229.145218 181.083984,232.081253 176.952667,235.529572 
M281.263062,338.076202 
	C290.251709,341.175842 299.240356,344.275482 309.511932,347.817535 
	C312.533447,331.775696 315.394623,316.585388 318.443390,300.399017 
	C299.978546,311.080078 282.582214,321.143036 264.472382,331.618774 
	C270.068604,333.851227 275.269470,335.925995 281.263062,338.076202 
M248.350250,183.907410 
	C247.536682,182.935532 246.909927,181.436554 245.881149,181.071945 
	C233.262039,176.599823 220.541779,172.410751 207.951736,167.860580 
	C204.897812,166.756866 204.438095,167.575638 203.915833,170.368668 
	C201.275604,184.488556 198.396286,198.563751 195.466354,213.332367 
	C213.520477,203.194641 230.561310,193.625900 248.350250,183.907410 
z"></path>
    <path fill="#0078EA" opacity="1.000000" stroke="none" d="
M280.994934,344.166260 
	C289.598663,346.951019 298.202362,349.735809 307.510956,352.748718 
	C305.526520,358.481018 303.834900,364.209839 301.580811,369.708069 
	C296.491241,382.122589 290.501129,394.071838 281.022949,403.839630 
	C268.234863,417.018433 252.545456,421.968109 236.128311,406.598480 
	C233.406799,404.050598 230.866089,401.309631 228.533401,398.244873 
	C229.526123,397.399597 230.343613,397.084106 230.911423,396.518127 
	C246.939896,380.540619 262.965668,364.560120 278.900391,348.489410 
	C279.967041,347.413696 280.313507,345.623901 280.994934,344.166260 
z"></path>
    <path fill="#0078EA" opacity="1.000000" stroke="none" d="
M325.996033,350.833923 
	C322.375702,350.112244 318.755371,349.390594 314.762115,348.594604 
	C316.553192,340.511292 318.509216,332.796539 319.928192,324.984253 
	C321.529663,316.167084 322.478668,307.230957 324.104095,298.418976 
	C324.478027,296.391815 326.102844,294.245636 327.746277,292.858124 
	C340.162292,282.375336 352.726562,272.068207 366.096771,261.000763 
	C372.432983,269.658508 379.209717,278.918243 385.845581,288.828217 
	C367.064850,308.223969 348.410217,326.954712 329.813660,345.742950 
	C328.335449,347.236389 327.259125,349.127594 325.996033,350.833923 
z"></path>
    <path fill="#0094F0" opacity="1.000000" stroke="none" d="
M179.111328,287.954376 
	C182.357925,290.091553 186.082901,291.777649 188.677597,294.529510 
	C190.321136,296.272583 190.474121,299.567902 190.963242,302.228149 
	C193.608704,316.616150 196.155685,331.022247 198.715912,345.425812 
	C198.885361,346.379059 198.883362,347.362732 198.967743,348.415222 
	C183.330490,352.829010 167.431625,353.887665 151.507385,352.816193 
	C142.165680,352.187653 132.851456,350.049927 125.275589,343.138885 
	C136.228653,331.840302 147.252625,321.258820 158.008804,310.411804 
	C165.239090,303.120453 172.090439,295.453339 179.111328,287.954376 
z"></path>
    <path fill="#00A7F4" opacity="1.000000" stroke="none" d="
M190.048462,163.868683 
	C192.926422,164.303864 195.804367,164.739029 199.341965,165.273941 
	C197.848816,171.845703 196.186874,178.070404 195.054626,184.389999 
	C193.190872,194.792587 191.816162,205.283890 189.878235,215.671173 
	C189.501968,217.687912 187.831314,219.799774 186.185074,221.189346 
	C173.777527,231.662567 161.226776,241.966125 147.884750,253.015030 
	C141.521683,244.298676 134.756287,235.031174 128.291199,225.332260 
	C130.625290,223.536087 132.941620,222.456253 134.649246,220.762634 
	C152.083771,203.471329 169.436920,186.097733 186.748199,168.682907 
	C188.097321,167.325714 188.959808,165.484787 190.048462,163.868683 
z"></path>
    <path fill="#00AFF6" opacity="1.000000" stroke="none" d="
M189.829773,163.519958 
	C188.959808,165.484787 188.097321,167.325714 186.748199,168.682907 
	C169.436920,186.097733 152.083771,203.471329 134.649246,220.762634 
	C132.941620,222.456253 130.625290,223.536087 128.237915,224.971069 
	C118.049576,211.141785 111.618187,191.338318 119.120316,177.640518 
	C123.785393,169.122742 131.755722,165.178986 140.693619,163.054138 
	C152.815552,160.172318 165.091873,160.231476 177.399963,161.944489 
	C181.448822,162.507996 185.539520,162.770874 189.829773,163.519958 
z"></path>
    <path fill="#0096F0" opacity="1.000000" stroke="none" d="
M203.622528,297.880157 
	C197.682892,295.668396 194.110062,292.414673 194.792358,285.040497 
	C195.435913,278.085083 194.347626,270.969421 194.416946,263.380981 
	C195.512878,262.408020 196.332443,262.097260 196.895996,261.531494 
	C220.315323,238.019897 243.711716,214.485458 267.110992,190.953888 
	C272.643768,193.723740 278.176544,196.493591 283.847046,199.942322 
	C282.861969,202.375183 281.992615,204.374619 280.572632,205.840683 
	C274.383789,212.230392 267.993378,218.424484 261.774658,224.785934 
	C260.318604,226.275406 259.247040,228.140778 257.560852,229.903412 
	C254.688538,230.197128 252.148071,230.048126 249.836609,230.704971 
	C235.546783,234.765579 224.849075,249.621002 231.828613,269.133240 
	C227.403107,273.320984 223.180145,277.250061 219.164413,281.380585 
	C213.898270,286.797272 208.795547,292.372894 203.622528,297.880157 
z"></path>
    <path fill="#009CF2" opacity="1.000000" stroke="none" d="
M178.968948,287.642822 
	C172.090439,295.453339 165.239090,303.120453 158.008804,310.411804 
	C147.252625,321.258820 136.228653,331.840302 125.135223,342.821289 
	C114.460197,334.396576 114.400810,322.973602 117.443375,311.295105 
	C121.268494,296.612854 129.347137,284.065308 138.998688,272.509369 
	C142.223572,268.648163 145.544266,264.866913 148.704834,261.184662 
	C158.785614,269.935120 168.806091,278.633209 178.968948,287.642822 
z"></path>
    <path fill="#0070E8" opacity="1.000000" stroke="none" d="
M326.420410,350.905518 
	C327.259125,349.127594 328.335449,347.236389 329.813660,345.742950 
	C348.410217,326.954712 367.064850,308.223969 385.878204,289.186462 
	C395.783997,302.415222 402.300781,322.532410 394.995819,336.070740 
	C390.325714,344.725861 382.432709,348.805908 373.454041,350.900543 
	C357.973633,354.512054 342.387024,353.502289 326.420410,350.905518 
z"></path>
    <path fill="#0081EC" opacity="1.000000" stroke="none" d="
M280.657745,343.992310 
	C280.313507,345.623901 279.967041,347.413696 278.900391,348.489410 
	C262.965668,364.560120 246.939896,380.540619 230.911423,396.518127 
	C230.343613,397.084106 229.526123,397.399597 228.502960,397.911133 
	C217.387695,384.593719 211.777237,368.816132 206.808426,353.564697 
	C223.152084,347.281799 238.786407,341.455597 254.250412,335.207855 
	C258.544769,333.472839 261.324829,336.384277 264.618744,337.380188 
	C270.008789,339.009857 275.102081,341.621124 280.657745,343.992310 
z"></path>
    <path fill="#0089ED" opacity="1.000000" stroke="none" d="
M247.285980,323.641846 
	C241.083664,320.400452 234.881332,317.159088 228.732620,313.451233 
	C236.544266,305.137451 244.310532,297.298279 252.053909,289.436615 
	C253.743607,287.721100 255.351730,285.925262 257.427734,284.094727 
	C269.684692,285.285889 284.064087,272.455292 284.490326,258.917206 
	C286.225281,257.708099 287.753693,256.696838 289.030212,255.431534 
	C297.407379,247.128006 305.700531,238.739563 314.100372,230.459244 
	C315.477295,229.101898 317.245728,228.141724 318.833221,226.997986 
	C319.212891,235.355316 319.592560,243.712677 319.580139,252.614609 
	C317.657227,254.407639 316.005524,255.534836 314.613861,256.922791 
	C294.592896,276.890442 274.616333,296.902557 254.599976,316.874786 
	C252.250458,319.219147 249.728180,321.390381 247.285980,323.641846 
z"></path>
    <path fill="#009CF2" opacity="1.000000" stroke="none" d="
M266.940186,190.635406 
	C243.711716,214.485458 220.315323,238.019897 196.895996,261.531494 
	C196.332443,262.097260 195.512878,262.408020 194.489670,262.917419 
	C194.443558,249.788574 194.669632,236.578430 195.086319,223.374283 
	C195.122772,222.218994 196.150101,220.734329 197.155960,220.023880 
	C215.077271,207.365387 234.059143,196.501175 253.890640,187.149017 
	C255.633377,186.327179 258.214447,186.624283 260.203888,187.156998 
	C262.509155,187.774261 264.590729,189.226929 266.940186,190.635406 
z"></path>
    <path fill="#0084EC" opacity="1.000000" stroke="none" d="
M247.606415,323.805847 
	C249.728180,321.390381 252.250458,319.219147 254.599976,316.874786 
	C274.616333,296.902557 294.592896,276.890442 314.613861,256.922791 
	C316.005524,255.534836 317.657227,254.407639 319.510925,253.078400 
	C319.553009,265.550293 319.326080,278.104828 318.901306,290.652649 
	C318.862274,291.805786 317.817444,293.282745 316.806519,293.991852 
	C298.946808,306.519531 280.009735,317.194977 260.495514,326.924347 
	C255.066589,329.631134 252.054352,325.133636 247.606415,323.805847 
z"></path>
    <path fill="#00AAF5" opacity="1.000000" stroke="none" d="
M216.962296,164.115906 
	C213.684082,163.320129 210.405853,162.524353 206.425552,161.558151 
	C208.385086,155.723938 209.932312,150.137177 212.115646,144.811172 
	C217.434235,131.837036 224.070892,119.595139 233.418137,108.991142 
	C244.284958,96.663208 259.854919,94.729111 273.855286,103.965355 
	C274.125061,104.143333 274.471191,104.205643 274.652405,104.810173 
	C255.958450,123.762535 237.382980,142.215836 218.862457,160.724136 
	C217.980255,161.605759 217.584549,162.974182 216.962296,164.115906 
z"></path>
    <path fill="#00A5F4" opacity="1.000000" stroke="none" d="
M217.147949,164.443817 
	C217.584549,162.974182 217.980255,161.605759 218.862457,160.724136 
	C237.382980,142.215836 255.958450,123.762535 274.815857,105.126297 
	C279.742126,110.053520 284.375671,115.152863 288.720459,120.681297 
	C287.229126,121.966156 285.878204,122.672874 284.846344,123.700104 
	C270.112061,138.368561 255.406006,153.065567 240.748322,167.810562 
	C239.619644,168.945969 238.904617,170.492569 237.997299,171.848022 
	C231.109406,169.489258 224.221497,167.130493 217.147949,164.443817 
z"></path>
    <path fill="#0089ED" opacity="1.000000" stroke="none" d="
M336.957092,228.113419 
	C334.898834,226.526352 333.031677,224.546509 330.743042,223.432846 
	C325.767822,221.011856 323.262299,217.229294 323.417969,211.320038 
	C324.632843,210.295258 325.573059,209.873108 326.255890,209.192673 
	C340.463623,195.034561 354.658081,180.862900 368.792633,166.631836 
	C369.789551,165.628113 370.302216,164.143417 371.040070,162.882385 
	C378.645020,163.855438 385.370605,166.675934 390.738678,172.876862 
	C377.144531,187.143692 363.566406,200.790146 350.036835,214.484604 
	C345.611969,218.963379 341.313416,223.566925 336.957092,228.113419 
z"></path>
    <path fill="#008FEF" opacity="1.000000" stroke="none" d="
M370.813263,162.539246 
	C370.302216,164.143417 369.789551,165.628113 368.792633,166.631836 
	C354.658081,180.862900 340.463623,195.034561 326.255890,209.192673 
	C325.573059,209.873108 324.632843,210.295258 323.489441,210.917374 
	C320.549225,195.860291 317.932068,180.723511 315.280304,165.386597 
	C333.472656,160.914825 351.906189,159.548706 370.813263,162.539246 
z"></path>
    <path fill="#0085ED" opacity="1.000000" stroke="none" d="
M337.095581,228.425659 
	C341.313416,223.566925 345.611969,218.963379 350.036835,214.484604 
	C363.566406,200.790146 377.144531,187.143692 390.877075,173.186478 
	C396.343933,177.839752 398.149109,184.108978 397.552551,191.589386 
	C395.631165,192.990509 393.887177,193.694687 392.673889,194.923050 
	C389.775452,197.857605 387.253906,201.164505 384.354797,204.098312 
	C374.367065,214.205521 364.228180,224.163879 354.293518,234.322327 
	C352.784760,235.865067 352.053223,238.167877 350.962219,240.119125 
	C346.386169,236.325378 341.810120,232.531647 337.095581,228.425659 
z"></path>
    <path fill="#00A0F3" opacity="1.000000" stroke="none" d="
M238.371658,171.920593 
	C238.904617,170.492569 239.619644,168.945969 240.748322,167.810562 
	C255.406006,153.065567 270.112061,138.368561 284.846344,123.700104 
	C285.878204,122.672874 287.229126,121.966156 288.774323,121.035759 
	C292.073975,126.028343 295.030914,131.095551 297.835358,136.812958 
	C285.188843,149.744980 272.659180,161.991058 260.259491,174.367340 
	C259.100647,175.524017 258.763367,177.503815 258.044617,179.101425 
	C254.569916,178.026886 251.046814,177.084763 247.634979,175.838181 
	C244.607803,174.732147 241.704178,173.288025 238.371658,171.920593 
z"></path>
    <path fill="#009EF2" opacity="1.000000" stroke="none" d="
M177.208130,235.273422 
	C181.083984,232.081253 184.704361,229.145218 188.499390,226.067551 
	C188.499390,246.838486 188.499390,267.067474 188.499390,288.376892 
	C176.302658,278.049042 164.413712,267.981812 151.519684,257.063507 
	C160.539841,249.426208 168.746262,242.477890 177.208130,235.273422 
z"></path>
    <path fill="#007DEB" opacity="1.000000" stroke="none" d="
M280.866699,338.038452 
	C275.269470,335.925995 270.068604,333.851227 264.472382,331.618774 
	C282.582214,321.143036 299.978546,311.080078 318.443390,300.399017 
	C315.394623,316.585388 312.533447,331.775696 309.511932,347.817535 
	C299.240356,344.275482 290.251709,341.175842 280.866699,338.038452 
z"></path>
    <path fill="#00A3F3" opacity="1.000000" stroke="none" d="
M247.976196,183.982285 
	C230.561310,193.625900 213.520477,203.194641 195.466354,213.332367 
	C198.396286,198.563751 201.275604,184.488556 203.915833,170.368668 
	C204.438095,167.575638 204.897812,166.756866 207.951736,167.860580 
	C220.541779,172.410751 233.262039,176.599823 245.881149,181.071945 
	C246.909927,181.436554 247.536682,182.935532 247.976196,183.982285 
z"></path>
    <path fill="#008EEF" opacity="1.000000" stroke="none" d="
M256.997437,284.166443 
	C255.351730,285.925262 253.743607,287.721100 252.053909,289.436615 
	C244.310532,297.298279 236.544266,305.137451 228.459137,313.196136 
	C220.076752,308.410339 212.021439,303.413116 203.794327,298.148010 
	C208.795547,292.372894 213.898270,286.797272 219.164413,281.380585 
	C223.180145,277.250061 227.403107,273.320984 232.134430,269.290497 
	C238.021469,278.806091 245.851898,284.187561 256.997437,284.166443 
z"></path>
    <path fill="#0081EC" opacity="1.000000" stroke="none" d="
M351.117981,240.420166 
	C352.053223,238.167877 352.784760,235.865067 354.293518,234.322327 
	C364.228180,224.163879 374.367065,214.205521 384.354797,204.098312 
	C387.253906,201.164505 389.775452,197.857605 392.673889,194.923050 
	C393.887177,193.694687 395.631165,192.990509 397.483490,192.022736 
	C398.468079,201.529999 394.574188,209.797134 390.494232,217.987106 
	C383.933411,231.157227 375.073761,242.622772 364.766602,252.764069 
	C360.145874,248.639893 355.709778,244.680542 351.117981,240.420166 
z"></path>
    <path fill="#008EEF" opacity="1.000000" stroke="none" d="
M318.902222,226.585403 
	C317.245728,228.141724 315.477295,229.101898 314.100372,230.459244 
	C305.700531,238.739563 297.407379,247.128006 289.030212,255.431534 
	C287.753693,256.696838 286.225281,257.708099 284.421143,258.472839 
	C284.982117,249.666977 281.181885,243.063034 276.224915,236.964294 
	C277.529785,236.270721 278.643738,235.802231 279.430878,235.009293 
	C287.362946,227.018616 295.241425,218.974762 303.135010,210.945862 
	C307.262024,213.670807 311.356476,216.446838 315.527802,219.102173 
	C318.175873,220.787872 319.694183,222.903595 318.902222,226.585403 
z"></path>
    <path fill="#0080EB" opacity="1.000000" stroke="none" d="
M346.044556,242.886627 
	C351.089874,247.371872 356.135162,251.857101 362.109009,257.167816 
	C349.790497,267.697754 337.911560,277.851990 326.032623,288.006226 
	C325.637726,287.795044 325.242828,287.583893 324.847931,287.372742 
	C325.239929,279.219635 325.631927,271.066498 326.431641,262.381714 
	C333.241058,255.528915 339.642822,249.207764 346.044556,242.886627 
z"></path>
    <path fill="#0094F0" opacity="1.000000" stroke="none" d="
M302.975220,210.624969 
	C295.241425,218.974762 287.362946,227.018616 279.430878,235.009293 
	C278.643738,235.802231 277.529785,236.270721 275.912537,236.823608 
	C270.244598,232.604843 264.772675,229.596146 257.998596,229.833206 
	C259.247040,228.140778 260.318604,226.275406 261.774658,224.785934 
	C267.993378,218.424484 274.383789,212.230392 280.572632,205.840683 
	C281.992615,204.374619 282.861969,202.375183 284.013367,200.253876 
	C290.299805,203.359055 296.557617,206.831558 302.975220,210.624969 
z"></path>
    <path fill="#009CF2" opacity="1.000000" stroke="none" d="
M258.417694,179.050751 
	C258.763367,177.503815 259.100647,175.524017 260.259491,174.367340 
	C272.659180,161.991058 285.188843,149.744980 297.866608,137.176666 
	C301.312866,144.882843 304.575378,152.875519 307.634979,160.371185 
	C290.727844,166.819473 274.759308,172.909775 258.417694,179.050751 
z"></path>
    <path fill="#0096F0" opacity="1.000000" stroke="none" d="
M293.999207,198.832336 
	C284.341187,193.632523 274.683167,188.432709 265.025146,183.232895 
	C264.904572,182.751862 264.784027,182.270828 264.663452,181.789795 
	C279.033081,176.713882 293.402710,171.637985 308.479126,166.312408 
	C309.751587,170.670898 310.852386,174.441376 311.565491,178.687073 
	C305.959991,183.852112 300.603455,188.401886 295.625519,193.333832 
	C294.435577,194.512787 294.507629,196.965485 293.999207,198.832336 
z"></path>
    <path fill="#0089ED" opacity="1.000000" stroke="none" d="
M224.044739,317.887268 
	C232.388351,322.111786 240.731964,326.336304 250.303070,331.182312 
	C245.905014,333.084686 242.673233,334.709747 239.289246,335.903320 
	C229.531784,339.344818 219.730423,342.665100 209.908432,345.918701 
	C206.574844,347.022980 203.469330,347.287933 203.578384,342.191681 
	C203.602097,341.083923 203.190506,339.966797 203.273422,338.372131 
	C210.393204,331.222565 217.218964,324.554932 224.044739,317.887268 
z"></path>
    <path fill="#008EEF" opacity="1.000000" stroke="none" d="
M223.900116,317.570068 
	C217.218964,324.554932 210.393204,331.222565 203.224670,337.965088 
	C200.486649,325.930206 198.091385,313.820465 195.696106,301.710754 
	C196.063446,301.349426 196.430801,300.988098 196.798141,300.626770 
	C205.783920,306.168793 214.769699,311.710815 223.900116,317.570068 
z"></path>
    <path fill="#0094F0" opacity="1.000000" stroke="none" d="
M294.317932,198.987228 
	C294.507629,196.965485 294.435577,194.512787 295.625519,193.333832 
	C300.603455,188.401886 305.959991,183.852112 311.505005,179.080353 
	C313.955902,190.126938 316.079620,201.255447 318.203369,212.383972 
	C317.838226,212.741348 317.473114,213.098724 317.108002,213.456100 
	C309.617554,208.684769 302.127106,203.913452 294.317932,198.987228 
z"></path>
    <path fill="#0085ED" opacity="1.000000" stroke="none" d="
M345.886658,242.585632 
	C339.642822,249.207764 333.241058,255.528915 326.502930,261.923828 
	C326.110535,256.035339 326.207062,250.066605 325.954987,244.112625 
	C325.708679,238.294846 325.106628,232.492111 324.553101,225.280411 
	C332.400909,231.582260 339.064819,236.933441 345.886658,242.585632 
z"></path>
    <path fill="#000000" opacity="1.000000" stroke="none" d="
M257.560852,229.903412 
	C264.772675,229.596146 270.244598,232.604843 275.569946,236.898117 
	C281.181885,243.063034 284.982117,249.666977 284.098083,258.553162 
	C284.064087,272.455292 269.684692,285.285889 257.427734,284.094727 
	C245.851898,284.187561 238.021469,278.806091 232.429169,269.121460 
	C224.849075,249.621002 235.546783,234.765579 249.836609,230.704971 
	C252.148071,230.048126 254.688538,230.197128 257.560852,229.903412 
M241.255890,272.676544 
	C241.834839,272.963440 242.525101,273.131622 242.976349,273.554718 
	C252.219452,282.221191 266.547882,279.635803 273.930786,270.807831 
	C279.840729,263.741089 281.643585,249.758347 271.352600,240.854965 
	C267.783051,236.757660 262.948273,235.226486 257.850006,235.082016 
	C248.373886,234.813492 241.235474,239.293350 237.207214,247.716141 
	C233.025467,256.459808 234.527145,264.761292 241.255890,272.676544 
z"></path>
    <path fill="#008EEF" opacity="1.000000" stroke="none" d="
M271.986298,241.161499 
	C281.643585,249.758347 279.840729,263.741089 273.930786,270.807831 
	C266.547882,279.635803 252.219452,282.221191 242.976349,273.554718 
	C242.525101,273.131622 241.834839,272.963440 241.529129,272.250183 
	C245.621582,267.962555 249.449341,264.109650 253.258057,260.238037 
	C259.507294,253.885574 265.744171,247.520966 271.986298,241.161499 
z"></path>
    <path fill="#0094F0" opacity="1.000000" stroke="none" d="
M271.669434,241.008224 
	C265.744171,247.520966 259.507294,253.885574 253.258057,260.238037 
	C249.449341,264.109650 245.621582,267.962555 241.481903,271.905273 
	C234.527145,264.761292 233.025467,256.459808 237.207214,247.716141 
	C241.235474,239.293350 248.373886,234.813492 257.850006,235.082016 
	C262.948273,235.226486 267.783051,236.757660 271.669434,241.008224 
z"></path>
  </symbol>
</svg>